#N canvas -8 0 1920 966 12;
#X obj 786 309 bng 19 250 50 0 empty empty empty 0 -10 0 12 #fcfcfc #000000 #000000;
#X obj 77 429 metro 200;
#X msg 408 309 0;
#X obj 229 431 metro 800;
#X obj 538 435 metro 1600;
#X msg 530 476 36;
#X msg 387 478 36;
#X msg 229 471 38;
#X obj 434 476 bng 19 250 50 0 empty empty empty 0 -10 0 12 #fcfcfc #000000 #000000;
#X obj 600 476 bng 19 250 50 0 empty empty empty 0 -10 0 12 #fcfcfc #000000 #000000;
#X msg 78 473 42;
#X obj 282 471 bng 19 250 50 0 empty empty empty 0 -10 0 12 #fcfcfc #000000 #000000;
#X obj 122 474 bng 19 250 50 0 empty empty empty 0 -10 0 12 #fcfcfc #000000 #000000;
#X obj 385 435 metro 800;
#X obj 384 403 delay 400;
#X obj 536 402 delay 600;
#X obj 621 309 loadbang;
#X obj 65 520 spigot;
#X obj 221 521 spigot;
#X obj 370 520 spigot;
#X obj 529 515 spigot;
#X obj 119 518 tgl 19 0 empty empty empty 0 -10 0 12 #fcfcfc #000000 #000000 0 1;
#X obj 276 520 tgl 19 0 empty empty empty 0 -10 0 12 #fcfcfc #000000 #000000 0 1;
#X obj 424 518 tgl 19 0 empty empty empty 0 -10 0 12 #fcfcfc #000000 #000000 0 1;
#X obj 585 514 tgl 19 0 empty empty empty 0 -10 0 12 #fcfcfc #000000 #000000 0 1;
#X obj 758 419 metro 200;
#X obj 817 464 bng 19 250 50 0 empty empty empty 0 -10 0 12 #fcfcfc #000000 #000000;
#X obj 740 511 spigot;
#X obj 798 511 tgl 19 0 empty empty empty 0 -10 0 12 #fcfcfc #000000 #000000 0 1;
#X obj 950 416 metro 200;
#X obj 1014 460 bng 19 250 50 0 empty empty empty 0 -10 0 12 #fcfcfc #000000 #000000;
#X obj 939 504 spigot;
#X obj 1000 504 tgl 19 0 empty empty empty 0 -10 0 12 #fcfcfc #000000 #000000 0 1;
#X obj 1011 620 noteout 1;
#X obj 1171 460 bng 19 250 50 0 empty empty empty 0 -10 0 12 #fcfcfc #000000 #000000;
#X obj 1107 505 spigot;
#X obj 1163 502 tgl 19 0 empty empty empty 0 -10 0 12 #fcfcfc #000000 #000000 0 1;
#X obj 1324 462 bng 19 250 50 0 empty empty empty 0 -10 0 12 #fcfcfc #000000 #000000;
#X obj 1263 508 spigot;
#X obj 1325 505 tgl 19 0 empty empty empty 0 -10 0 12 #fcfcfc #000000 #000000 0 1;
#X msg 772 464 48;
#X msg 967 461 71;
#X obj 1120 416 metro 400;
#X obj 1270 421 metro 400;
#X obj 1270 387 delay 200;
#X msg 733 464 46;
#X obj 1193 563 makenote 120 100;
#X obj 295 582 makenote 80 50;
#X obj 942 565 makenote 85 190;
#X obj 743 567 makenote 110 190;
#X msg 924 463 68;
#X msg 1124 461 80;
#X msg 1276 461 84;
#X msg 599 909 connect localhost 11111;
#X msg 599 944 disconnect;
#X obj 598 980 netsend -u -b;
#X floatatom 548 981 5 0 0 0 - - - 0;
#X obj 11 662 expr if($f2 == 1 \, $f1 \, 0);
#X obj 141 697 expr if($f2 == 1 \, $f1 \, 0);
#X obj 281 662 expr if($f2 == 1 \, $f1 \, 0);
#X obj 313 627 noteout 10;
#X obj 466 692 expr if($f2 == 1 \, $f1 \, 0);
#X obj 706 650 expr if($f1 == 1 \, 47 \, 0);
#X obj 903 679 expr if($f1 == 1 \, 69 \, 0);
#X obj 1073 648 expr if($f2 == 1 \, $f1 \, 0);
#X obj 1221 679 expr if($f2 == 1 \, $f1 \, 0);
#X msg 1385 -78 listen 11112;
#X msg 1385 -49 listen 0;
#X obj 1385 -9 netreceive -u -b;
#X obj 1385 31 oscparse;
#X obj 1385 75 list trim;
#X obj 98 272 route q;
#X listbox 1473 32 9 0 0 0 - - - 0;
#X obj 144 518 bng 19 250 50 0 empty empty empty 0 -10 0 12 #fcfcfc #000000 #000000;
#X obj 301 520 bng 19 250 50 0 empty empty empty 0 -10 0 12 #fcfcfc #000000 #000000;
#X obj 226 270 route w;
#X obj 368 269 route e;
#X obj 528 272 route r;
#X obj 741 267 route t;
#X obj 931 267 route y;
#X obj 1099 263 route u;
#X obj 1274 262 route i;
#X obj 451 519 bng 19 250 50 0 empty empty empty 0 -10 0 12 #fcfcfc #000000 #000000;
#X obj 1198 503 bng 19 250 50 0 empty empty empty 0 -10 0 12 #fcfcfc #000000 #000000;
#X obj 1029 504 bng 19 250 50 0 empty empty empty 0 -10 0 12 #fcfcfc #000000 #000000;
#X obj 834 510 bng 19 250 50 0 empty empty empty 0 -10 0 12 #fcfcfc #000000 #000000;
#X obj 617 514 bng 19 250 50 0 empty empty empty 0 -10 0 12 #fcfcfc #000000 #000000;
#X obj 1358 504 bng 19 250 50 0 empty empty empty 0 -10 0 12 #fcfcfc #000000 #000000;
#X obj 1296 31 unpack s s;
#X obj 1296 73 print;
#X obj 2041 423 metro 1600;
#X msg 2043 464 36;
#X msg 1893 464 36;
#X obj 1940 462 bng 19 250 50 0 empty empty empty 0 -10 0 12 #fcfcfc #000000 #000000;
#X obj 2103 464 bng 19 250 50 0 empty empty empty 0 -10 0 12 #fcfcfc #000000 #000000;
#X obj 1756 450 bng 19 250 50 0 empty empty empty 0 -10 0 12 #fcfcfc #000000 #000000;
#X obj 1508 410 bng 19 250 50 0 empty empty empty 0 -10 0 12 #fcfcfc #000000 #000000;
#X obj 1891 421 metro 800;
#X obj 1890 389 delay 400;
#X obj 2039 390 delay 600;
#X obj 1523 629 spigot;
#X obj 1690 499 spigot;
#X obj 1876 506 spigot;
#X obj 2032 503 spigot;
#X obj 1578 628 tgl 19 0 empty empty empty 0 -10 0 12 #fcfcfc #000000 #000000 0 1;
#X obj 1750 499 tgl 19 0 empty empty empty 0 -10 0 12 #fcfcfc #000000 #000000 0 1;
#X obj 1930 504 tgl 19 0 empty empty empty 0 -10 0 12 #fcfcfc #000000 #000000 0 1;
#X obj 2088 502 tgl 19 0 empty empty empty 0 -10 0 12 #fcfcfc #000000 #000000 0 1;
#X obj 1603 628 bng 19 250 50 0 empty empty empty 0 -10 0 12 #fcfcfc #000000 #000000;
#X obj 1775 499 bng 19 250 50 0 empty empty empty 0 -10 0 12 #fcfcfc #000000 #000000;
#X obj 1957 505 bng 19 250 50 0 empty empty empty 0 -10 0 12 #fcfcfc #000000 #000000;
#X obj 2120 502 bng 19 250 50 0 empty empty empty 0 -10 0 12 #fcfcfc #000000 #000000;
#X obj 616 164 route one;
#X obj 1889 190 route two;
#X obj 1798 287 loadbang;
#X msg 1650 319 0;
#X obj 1938 319 bng 19 250 50 0 empty empty empty 0 -10 0 12 #fcfcfc #000000 #000000;
#X obj 1716 857 makenote 80 50;
#X obj 1734 902 noteout 1;
#X obj 1703 410 metro 525;
#X msg 1703 450 55;
#X obj 1523 541 sel 0 1 2 3;
#X obj 1521 459 i;
#X msg 1564 440 0;
#X obj 1566 478 + 1;
#X obj 1521 504 % 4;
#X floatatom 1572 505 4 0 0 0 - - - 0;
#X msg 1499 584 70;
#X obj 1538 408 metro 180;
#X listbox 1168 922 25 0 0 0 - - - 0;
#X obj 1168 885 pack f f f f f f f f, f 33;
#X obj 44 693 oscformat /q;
#X obj 196 727 oscformat /w;
#X msg 1535 582 70;
#X msg 1569 583 70;
#X msg 1607 583 70;
#X obj 334 696 oscformat /e;
#X obj 514 725 oscformat /r;
#X obj 748 682 oscformat /t;
#X obj 937 710 oscformat /y;
#X obj 1112 681 oscformat /u;
#X obj 1265 710 oscformat /i;
#X connect 0 0 1 0;
#X connect 0 0 3 0;
#X connect 0 0 14 0;
#X connect 0 0 15 0;
#X connect 0 0 25 0;
#X connect 0 0 29 0;
#X connect 0 0 42 0;
#X connect 0 0 44 0;
#X connect 1 0 10 0;
#X connect 1 0 12 0;
#X connect 2 0 1 0;
#X connect 2 0 3 0;
#X connect 2 0 4 0;
#X connect 2 0 13 0;
#X connect 2 0 25 0;
#X connect 2 0 29 0;
#X connect 2 0 42 0;
#X connect 2 0 43 0;
#X connect 3 0 7 0;
#X connect 3 0 11 0;
#X connect 4 0 5 0;
#X connect 4 0 9 0;
#X connect 5 0 20 0;
#X connect 5 0 61 0;
#X connect 6 0 19 0;
#X connect 6 0 59 0;
#X connect 7 0 18 0;
#X connect 7 0 58 0;
#X connect 10 0 17 0;
#X connect 10 0 57 0;
#X connect 13 0 6 0;
#X connect 13 0 8 0;
#X connect 14 0 13 0;
#X connect 15 0 4 0;
#X connect 16 0 0 0;
#X connect 17 0 47 0;
#X connect 18 0 47 0;
#X connect 19 0 47 0;
#X connect 20 0 47 0;
#X connect 21 0 17 1;
#X connect 21 0 57 1;
#X connect 22 0 18 1;
#X connect 22 0 58 1;
#X connect 23 0 19 1;
#X connect 23 0 59 1;
#X connect 24 0 20 1;
#X connect 24 0 61 1;
#X connect 25 0 40 0;
#X connect 25 0 26 0;
#X connect 25 0 45 0;
#X connect 27 0 49 0;
#X connect 28 0 27 1;
#X connect 28 0 62 0;
#X connect 29 0 41 0;
#X connect 29 0 30 0;
#X connect 29 0 50 0;
#X connect 31 0 48 0;
#X connect 32 0 31 1;
#X connect 32 0 63 0;
#X connect 35 0 46 0;
#X connect 36 0 35 1;
#X connect 36 0 64 1;
#X connect 38 0 46 0;
#X connect 39 0 38 1;
#X connect 39 0 65 1;
#X connect 40 0 27 0;
#X connect 41 0 31 0;
#X connect 42 0 51 0;
#X connect 42 0 34 0;
#X connect 43 0 52 0;
#X connect 43 0 37 0;
#X connect 44 0 43 0;
#X connect 45 0 27 0;
#X connect 46 0 33 0;
#X connect 46 1 33 1;
#X connect 47 0 60 0;
#X connect 47 1 60 1;
#X connect 48 0 33 0;
#X connect 48 1 33 1;
#X connect 49 0 33 0;
#X connect 49 1 33 1;
#X connect 50 0 31 0;
#X connect 51 0 35 0;
#X connect 51 0 64 0;
#X connect 52 0 38 0;
#X connect 52 0 65 0;
#X connect 53 0 55 0;
#X connect 54 0 55 0;
#X connect 55 0 56 0;
#X connect 57 0 131 0;
#X connect 58 0 132 0;
#X connect 59 0 136 0;
#X connect 61 0 137 0;
#X connect 62 0 138 0;
#X connect 63 0 139 0;
#X connect 64 0 140 0;
#X connect 65 0 141 0;
#X connect 66 0 68 0;
#X connect 67 0 68 0;
#X connect 68 0 69 0;
#X connect 69 0 70 0;
#X connect 69 0 72 0;
#X connect 69 0 88 0;
#X connect 70 0 71 0;
#X connect 70 0 75 0;
#X connect 70 0 76 0;
#X connect 70 0 77 0;
#X connect 70 0 78 0;
#X connect 70 0 79 0;
#X connect 70 0 80 0;
#X connect 70 0 81 0;
#X connect 70 0 112 0;
#X connect 70 0 113 0;
#X connect 71 0 73 0;
#X connect 73 0 21 0;
#X connect 74 0 22 0;
#X connect 75 0 74 0;
#X connect 76 0 82 0;
#X connect 77 0 86 0;
#X connect 78 0 85 0;
#X connect 79 0 84 0;
#X connect 80 0 83 0;
#X connect 81 0 87 0;
#X connect 82 0 23 0;
#X connect 83 0 36 0;
#X connect 84 0 32 0;
#X connect 85 0 28 0;
#X connect 86 0 24 0;
#X connect 87 0 39 0;
#X connect 88 0 89 0;
#X connect 90 0 91 0;
#X connect 90 0 94 0;
#X connect 91 0 103 0;
#X connect 92 0 102 0;
#X connect 97 0 92 0;
#X connect 97 0 93 0;
#X connect 98 0 97 0;
#X connect 99 0 90 0;
#X connect 100 0 117 0;
#X connect 101 0 117 0;
#X connect 104 0 100 1;
#X connect 105 0 101 1;
#X connect 106 0 102 1;
#X connect 107 0 103 1;
#X connect 108 0 104 0;
#X connect 109 0 105 0;
#X connect 110 0 106 0;
#X connect 111 0 107 0;
#X connect 112 0 0 0;
#X connect 112 0 115 0;
#X connect 113 0 2 0;
#X connect 113 0 116 0;
#X connect 114 0 116 0;
#X connect 115 0 97 0;
#X connect 115 0 90 0;
#X connect 115 0 119 0;
#X connect 115 0 128 0;
#X connect 116 0 99 0;
#X connect 116 0 98 0;
#X connect 116 0 119 0;
#X connect 116 0 128 0;
#X connect 117 0 118 0;
#X connect 117 1 118 1;
#X connect 119 0 120 0;
#X connect 119 0 95 0;
#X connect 120 0 101 0;
#X connect 121 0 127 0;
#X connect 121 1 133 0;
#X connect 121 2 134 0;
#X connect 121 3 135 0;
#X connect 122 0 124 0;
#X connect 122 0 125 0;
#X connect 123 0 122 1;
#X connect 124 0 122 1;
#X connect 125 0 126 0;
#X connect 126 0 121 0;
#X connect 127 0 100 0;
#X connect 128 0 96 0;
#X connect 128 0 122 0;
#X connect 130 0 129 0;
#X connect 131 0 55 0;
#X connect 132 0 55 0;
#X connect 133 0 100 0;
#X connect 134 0 100 0;
#X connect 135 0 100 0;
#X connect 136 0 55 0;
#X connect 137 0 55 0;
#X connect 138 0 55 0;
#X connect 139 0 55 0;
#X connect 140 0 55 0;
#X connect 141 0 55 0;
