#N canvas -1350 56 1378 817 12;
#X obj 786 309 bng 19 250 50 0 empty empty empty 0 -10 0 12 #fcfcfc #000000 #000000;
#X obj 77 429 metro 200;
#X msg 408 309 0;
#X obj 229 431 metro 800;
#X obj 538 435 metro 1600;
#X msg 530 476 36;
#X msg 387 478 36;
#X msg 229 471 38;
#X obj 434 476 bng 19 250 50 0 empty empty empty 0 -10 0 12 #fcfcfc #000000 #000000;
#X obj 600 476 bng 19 250 50 0 empty empty empty 0 -10 0 12 #fcfcfc #000000 #000000;
#X msg 78 473 42;
#X obj 282 471 bng 19 250 50 0 empty empty empty 0 -10 0 12 #fcfcfc #000000 #000000;
#X obj 122 474 bng 19 250 50 0 empty empty empty 0 -10 0 12 #fcfcfc #000000 #000000;
#X obj 385 435 metro 800;
#X obj 384 403 delay 400;
#X obj 536 402 delay 600;
#X obj 621 309 loadbang;
#X obj 65 520 spigot;
#X obj 221 521 spigot;
#X obj 370 520 spigot;
#X obj 529 515 spigot;
#X obj 119 518 tgl 19 0 empty empty empty 0 -10 0 12 #fcfcfc #000000 #000000 0 1;
#X obj 276 520 tgl 19 0 empty empty empty 0 -10 0 12 #fcfcfc #000000 #000000 0 1;
#X obj 424 518 tgl 19 0 empty empty empty 0 -10 0 12 #fcfcfc #000000 #000000 0 1;
#X obj 585 514 tgl 19 0 empty empty empty 0 -10 0 12 #fcfcfc #000000 #000000 0 1;
#X obj 758 419 metro 200;
#X obj 817 464 bng 19 250 50 0 empty empty empty 0 -10 0 12 #fcfcfc #000000 #000000;
#X obj 740 511 spigot;
#X obj 798 511 tgl 19 0 empty empty empty 0 -10 0 12 #fcfcfc #000000 #000000 0 1;
#X obj 950 416 metro 200;
#X obj 1014 460 bng 19 250 50 0 empty empty empty 0 -10 0 12 #fcfcfc #000000 #000000;
#X obj 939 504 spigot;
#X obj 1000 504 tgl 19 0 empty empty empty 0 -10 0 12 #fcfcfc #000000 #000000 0 1;
#X obj 1011 620 noteout 1;
#X obj 1171 460 bng 19 250 50 0 empty empty empty 0 -10 0 12 #fcfcfc #000000 #000000;
#X obj 1107 505 spigot;
#X obj 1163 502 tgl 19 0 empty empty empty 0 -10 0 12 #fcfcfc #000000 #000000 0 1;
#X obj 1324 462 bng 19 250 50 0 empty empty empty 0 -10 0 12 #fcfcfc #000000 #000000;
#X obj 1263 508 spigot;
#X obj 1325 505 tgl 19 0 empty empty empty 0 -10 0 12 #fcfcfc #000000 #000000 0 1;
#X msg 772 464 48;
#X msg 967 461 71;
#X obj 1120 416 metro 400;
#X obj 1270 421 metro 400;
#X obj 1270 387 delay 200;
#X msg 733 464 46;
#X obj 1193 563 makenote 120 100;
#X obj 295 582 makenote 80 50;
#X obj 942 565 makenote 85 190;
#X msg 924 463 68;
#X msg 1124 461 80;
#X msg 1276 461 84;
#X msg 1453 1020 connect localhost 11111;
#X msg 1453 1055 disconnect;
#X obj 1452 1091 netsend -u -b;
#X floatatom 1402 1092 5 0 0 0 - - - 0;
#X obj 11 662 expr if($f2 == 1 \, $f1 \, 0);
#X obj 141 697 expr if($f2 == 1 \, $f1 \, 0);
#X obj 281 662 expr if($f2 == 1 \, $f1 \, 0);
#X obj 313 627 noteout 10;
#X obj 466 692 expr if($f2 == 1 \, $f1 \, 0);
#X obj 1073 648 expr if($f2 == 1 \, $f1 \, 0);
#X obj 1221 679 expr if($f2 == 1 \, $f1 \, 0);
#X msg 1385 -78 listen 11112;
#X msg 1385 -49 listen 0;
#X obj 1385 -9 netreceive -u -b;
#X obj 1385 31 oscparse;
#X obj 1385 75 list trim;
#X obj 98 272 route q;
#X listbox 1473 32 9 0 0 0 - - - 0;
#X obj 144 518 bng 19 250 50 0 empty empty empty 0 -10 0 12 #fcfcfc #000000 #000000;
#X obj 301 520 bng 19 250 50 0 empty empty empty 0 -10 0 12 #fcfcfc #000000 #000000;
#X obj 226 270 route w;
#X obj 368 269 route e;
#X obj 528 272 route r;
#X obj 741 267 route t;
#X obj 931 267 route y;
#X obj 1099 263 route u;
#X obj 1274 262 route i;
#X obj 451 519 bng 19 250 50 0 empty empty empty 0 -10 0 12 #fcfcfc #000000 #000000;
#X obj 1198 503 bng 19 250 50 0 empty empty empty 0 -10 0 12 #fcfcfc #000000 #000000;
#X obj 1029 504 bng 19 250 50 0 empty empty empty 0 -10 0 12 #fcfcfc #000000 #000000;
#X obj 834 510 bng 19 250 50 0 empty empty empty 0 -10 0 12 #fcfcfc #000000 #000000;
#X obj 617 514 bng 19 250 50 0 empty empty empty 0 -10 0 12 #fcfcfc #000000 #000000;
#X obj 1358 504 bng 19 250 50 0 empty empty empty 0 -10 0 12 #fcfcfc #000000 #000000;
#X obj 1296 31 unpack s s;
#X obj 1296 73 print;
#X obj 616 164 route one;
#X obj 1889 190 route two;
#X msg 1873 236 0;
#X obj 2008 234 bng 19 250 50 0 empty empty empty 0 -10 0 12 #fcfcfc #000000 #000000;
#X obj 1802 829 noteout 1;
#X obj 44 693 oscformat /q;
#X obj 196 727 oscformat /w;
#X obj 334 696 oscformat /e;
#X obj 514 725 oscformat /r;
#X obj 748 682 oscformat /t;
#X obj 937 710 oscformat /y;
#X obj 1112 681 oscformat /u;
#X obj 1265 710 oscformat /i;
#X obj 706 650 expr if($f2 == 1 \, $f1 \, 0);
#X obj 903 679 expr if($f2 == 1 \, $f1 \, 0);
#X obj 1666 495 bng 19 250 50 0 empty empty empty 0 -10 0 12 #fcfcfc #000000 #000000;
#X obj 1644 758 spigot;
#X obj 1699 757 tgl 19 0 empty empty empty 0 -10 0 12 #fcfcfc #000000 #000000 0 1;
#X obj 1724 757 bng 19 250 50 0 empty empty empty 0 -10 0 12 #fcfcfc #000000 #000000;
#X obj 1679 544 i;
#X msg 1722 525 0;
#X obj 1724 563 + 1;
#X floatatom 1730 590 4 0 0 0 - - - 0;
#X obj 1696 493 metro 180;
#X msg 1518 671 74;
#X msg 1589 672 74;
#X obj 1680 589 % 12;
#X msg 1671 670 74;
#X msg 1742 671 74;
#X msg 1821 670 74;
#X msg 1892 671 74;
#X obj 1568 627 sel 0 1 2 3 4 5 6 7 8 9 10 11, f 38;
#X msg 1482 673 78;
#X msg 1552 672 71;
#X msg 1635 672 71;
#X msg 1705 671 76;
#X msg 1785 672 71;
#X msg 1856 671 71;
#X obj 1962 486 bng 19 250 50 0 empty empty empty 0 -10 0 12 #fcfcfc #000000 #000000;
#X obj 1959 750 spigot;
#X obj 2014 749 tgl 19 0 empty empty empty 0 -10 0 12 #fcfcfc #000000 #000000 0 1;
#X obj 2039 749 bng 19 250 50 0 empty empty empty 0 -10 0 12 #fcfcfc #000000 #000000;
#X obj 1992 538 i;
#X msg 2035 519 0;
#X obj 2037 557 + 1;
#X floatatom 2043 584 4 0 0 0 - - - 0;
#X obj 1964 623 sel 0 1 2 3, f 14;
#X obj 2003 583 % 4;
#X obj 1992 486 metro 540;
#X msg 1943 671 59;
#X msg 1979 669 66;
#X msg 2013 670 68;
#X msg 2051 670 66;
#X obj 2156 487 bng 19 250 50 0 empty empty empty 0 -10 0 12 #fcfcfc #000000 #000000;
#X obj 2161 744 spigot;
#X obj 2216 743 tgl 19 0 empty empty empty 0 -10 0 12 #fcfcfc #000000 #000000 0 1;
#X obj 2241 743 bng 19 250 50 0 empty empty empty 0 -10 0 12 #fcfcfc #000000 #000000;
#X obj 2187 536 i;
#X obj 2232 555 + 1;
#X floatatom 2238 582 4 0 0 0 - - - 0;
#X obj 2164 621 sel 0 1 2 3, f 14;
#X obj 2197 582 % 4;
#X obj 2156 451 bng 19 250 50 0 empty empty empty 0 -10 0 12 #fcfcfc #000000 #000000;
#X obj 2187 452 tgl 19 0 empty empty empty 0 -10 0 12 #fcfcfc #000000 #000000 0 1;
#X obj 2187 484 metro 180;
#X obj 2220 451 bng 19 250 50 0 empty empty empty 0 -10 0 12 #fcfcfc #000000 #000000;
#X obj 2209 379 delay 720;
#X floatatom 1965 584 4 0 0 0 - - - 0;
#X floatatom 1639 591 4 0 0 0 - - - 0;
#X listbox 2352 -51 73 0 0 0 - - - 0;
#X floatatom 2158 581 4 0 0 0 - - - 0;
#X obj 2119 360 delay 3780;
#X obj 2119 409 metro 4320;
#X obj 2209 411 metro 4320;
#X msg 2137 669 40;
#X msg 2174 667 39;
#X msg 2208 668 37;
#X msg 2246 668 35;
#X obj 2174 827 noteout 1;
#X obj 2156 782 makenote 127 50;
#X obj 153 1085 vsl 19 162 0 127 0 0 empty empty empty 0 -9 0 12 #fcfcfc #000000 #000000 0 1;
#X obj 2140 700 bng 19 250 50 0 empty empty empty 0 -10 0 12 #fcfcfc #000000 #000000;
#X obj 2172 698 bng 19 250 50 0 empty empty empty 0 -10 0 12 #fcfcfc #000000 #000000;
#X obj 2209 699 bng 19 250 50 0 empty empty empty 0 -10 0 12 #fcfcfc #000000 #000000;
#X obj 2249 698 bng 19 250 50 0 empty empty empty 0 -10 0 12 #fcfcfc #000000 #000000;
#X msg 2230 517 0;
#X obj 1484 706 bng 19 250 50 0 empty empty empty 0 -10 0 12 #fcfcfc #000000 #000000;
#X obj 1518 708 bng 19 250 50 0 empty empty empty 0 -10 0 12 #fcfcfc #000000 #000000;
#X obj 2017 704 bng 19 250 50 0 empty empty empty 0 -10 0 12 #fcfcfc #000000 #000000;
#X obj 1984 705 bng 19 250 50 0 empty empty empty 0 -10 0 12 #fcfcfc #000000 #000000;
#X obj 1946 706 bng 19 250 50 0 empty empty empty 0 -10 0 12 #fcfcfc #000000 #000000;
#X obj 2052 704 bng 19 250 50 0 empty empty empty 0 -10 0 12 #fcfcfc #000000 #000000;
#X obj 1551 708 bng 19 250 50 0 empty empty empty 0 -10 0 12 #fcfcfc #000000 #000000;
#X obj 1669 705 bng 19 250 50 0 empty empty empty 0 -10 0 12 #fcfcfc #000000 #000000;
#X obj 1635 706 bng 19 250 50 0 empty empty empty 0 -10 0 12 #fcfcfc #000000 #000000;
#X obj 1589 707 bng 19 250 50 0 empty empty empty 0 -10 0 12 #fcfcfc #000000 #000000;
#X obj 1703 705 bng 19 250 50 0 empty empty empty 0 -10 0 12 #fcfcfc #000000 #000000;
#X obj 1741 705 bng 19 250 50 0 empty empty empty 0 -10 0 12 #fcfcfc #000000 #000000;
#X obj 1784 704 bng 19 250 50 0 empty empty empty 0 -10 0 12 #fcfcfc #000000 #000000;
#X obj 1820 703 bng 19 250 50 0 empty empty empty 0 -10 0 12 #fcfcfc #000000 #000000;
#X obj 1855 703 bng 19 250 50 0 empty empty empty 0 -10 0 12 #fcfcfc #000000 #000000;
#X obj 1894 702 bng 19 250 50 0 empty empty empty 0 -10 0 12 #fcfcfc #000000 #000000;
#X obj 1589 866 expr if($f2 == 1 \, $f1 \, 0);
#X obj 1908 873 expr if($f2 == 1 \, $f1 \, 0);
#X obj 2131 869 expr if($f2 == 1 \, $f1 \, 0);
#X obj 1784 784 makenote 90 50;
#X obj 743 567 makenote 95 190;
#X msg 1843 464 0;
#X obj 1704 292 route a;
#X obj 1988 288 route s;
#X obj 2177 288 route d;
#X obj 1633 897 oscformat /a;
#X obj 1952 904 oscformat /s;
#X obj 2175 900 oscformat /d;
#X msg 656 415 0;
#X connect 0 0 1 0;
#X connect 0 0 3 0;
#X connect 0 0 14 0;
#X connect 0 0 15 0;
#X connect 0 0 25 0;
#X connect 0 0 29 0;
#X connect 0 0 42 0;
#X connect 0 0 44 0;
#X connect 0 0 201 0;
#X connect 1 0 10 0;
#X connect 1 0 12 0;
#X connect 2 0 1 0;
#X connect 2 0 3 0;
#X connect 2 0 4 0;
#X connect 2 0 13 0;
#X connect 2 0 25 0;
#X connect 2 0 29 0;
#X connect 2 0 42 0;
#X connect 2 0 43 0;
#X connect 3 0 7 0;
#X connect 3 0 11 0;
#X connect 4 0 5 0;
#X connect 4 0 9 0;
#X connect 5 0 20 0;
#X connect 5 0 60 0;
#X connect 6 0 19 0;
#X connect 6 0 58 0;
#X connect 7 0 18 0;
#X connect 7 0 57 0;
#X connect 10 0 17 0;
#X connect 10 0 56 0;
#X connect 13 0 6 0;
#X connect 13 0 8 0;
#X connect 14 0 13 0;
#X connect 15 0 4 0;
#X connect 16 0 0 0;
#X connect 17 0 47 0;
#X connect 18 0 47 0;
#X connect 19 0 47 0;
#X connect 20 0 47 0;
#X connect 21 0 17 1;
#X connect 21 0 56 1;
#X connect 22 0 18 1;
#X connect 22 0 57 1;
#X connect 23 0 19 1;
#X connect 23 0 58 1;
#X connect 24 0 20 1;
#X connect 24 0 60 1;
#X connect 25 0 40 0;
#X connect 25 0 26 0;
#X connect 25 0 45 0;
#X connect 27 0 193 0;
#X connect 28 0 27 1;
#X connect 28 0 100 1;
#X connect 29 0 41 0;
#X connect 29 0 30 0;
#X connect 29 0 49 0;
#X connect 31 0 48 0;
#X connect 32 0 31 1;
#X connect 32 0 101 1;
#X connect 35 0 46 0;
#X connect 36 0 35 1;
#X connect 36 0 61 1;
#X connect 38 0 46 0;
#X connect 39 0 38 1;
#X connect 39 0 62 1;
#X connect 40 0 27 0;
#X connect 41 0 31 0;
#X connect 42 0 50 0;
#X connect 42 0 34 0;
#X connect 43 0 51 0;
#X connect 43 0 37 0;
#X connect 44 0 43 0;
#X connect 45 0 27 0;
#X connect 45 0 100 0;
#X connect 46 0 33 0;
#X connect 46 1 33 1;
#X connect 47 0 59 0;
#X connect 47 1 59 1;
#X connect 48 0 33 0;
#X connect 48 1 33 1;
#X connect 49 0 31 0;
#X connect 49 0 101 0;
#X connect 50 0 35 0;
#X connect 50 0 61 0;
#X connect 51 0 38 0;
#X connect 51 0 62 0;
#X connect 52 0 54 0;
#X connect 53 0 54 0;
#X connect 54 0 55 0;
#X connect 56 0 92 0;
#X connect 57 0 93 0;
#X connect 58 0 94 0;
#X connect 60 0 95 0;
#X connect 61 0 98 0;
#X connect 62 0 99 0;
#X connect 63 0 65 0;
#X connect 64 0 65 0;
#X connect 65 0 66 0;
#X connect 66 0 67 0;
#X connect 66 0 69 0;
#X connect 66 0 85 0;
#X connect 67 0 68 0;
#X connect 67 0 72 0;
#X connect 67 0 73 0;
#X connect 67 0 74 0;
#X connect 67 0 75 0;
#X connect 67 0 76 0;
#X connect 67 0 77 0;
#X connect 67 0 78 0;
#X connect 67 0 87 0;
#X connect 67 0 88 0;
#X connect 67 0 195 0;
#X connect 67 0 196 0;
#X connect 67 0 197 0;
#X connect 68 0 70 0;
#X connect 70 0 21 0;
#X connect 71 0 22 0;
#X connect 72 0 71 0;
#X connect 73 0 79 0;
#X connect 74 0 83 0;
#X connect 75 0 82 0;
#X connect 76 0 81 0;
#X connect 77 0 80 0;
#X connect 78 0 84 0;
#X connect 79 0 23 0;
#X connect 80 0 36 0;
#X connect 81 0 32 0;
#X connect 82 0 28 0;
#X connect 83 0 24 0;
#X connect 84 0 39 0;
#X connect 85 0 86 0;
#X connect 87 0 0 0;
#X connect 87 0 89 0;
#X connect 87 0 194 0;
#X connect 88 0 2 0;
#X connect 88 0 90 0;
#X connect 88 0 201 0;
#X connect 89 0 110 0;
#X connect 89 0 135 0;
#X connect 89 0 151 0;
#X connect 89 0 154 0;
#X connect 89 0 106 0;
#X connect 89 0 144 0;
#X connect 89 0 129 0;
#X connect 89 0 159 0;
#X connect 89 0 160 0;
#X connect 89 0 107 0;
#X connect 89 0 130 0;
#X connect 89 0 172 0;
#X connect 89 0 150 0;
#X connect 90 0 110 0;
#X connect 90 0 135 0;
#X connect 90 0 158 0;
#X connect 90 0 194 0;
#X connect 92 0 54 0;
#X connect 93 0 54 0;
#X connect 94 0 54 0;
#X connect 95 0 54 0;
#X connect 96 0 54 0;
#X connect 97 0 54 0;
#X connect 98 0 54 0;
#X connect 99 0 54 0;
#X connect 100 0 96 0;
#X connect 101 0 97 0;
#X connect 103 0 192 0;
#X connect 103 0 189 0;
#X connect 104 0 103 1;
#X connect 104 0 189 1;
#X connect 105 0 104 0;
#X connect 106 0 108 0;
#X connect 106 0 113 0;
#X connect 106 0 155 0;
#X connect 107 0 106 1;
#X connect 108 0 106 1;
#X connect 109 0 118 0;
#X connect 110 0 102 0;
#X connect 110 0 106 0;
#X connect 111 0 103 0;
#X connect 111 0 174 0;
#X connect 112 0 103 0;
#X connect 112 0 182 0;
#X connect 113 0 109 0;
#X connect 114 0 103 0;
#X connect 114 0 180 0;
#X connect 115 0 103 0;
#X connect 115 0 184 0;
#X connect 116 0 103 0;
#X connect 116 0 186 0;
#X connect 117 0 103 0;
#X connect 117 0 188 0;
#X connect 118 0 119 0;
#X connect 118 1 111 0;
#X connect 118 2 120 0;
#X connect 118 3 112 0;
#X connect 118 4 121 0;
#X connect 118 5 114 0;
#X connect 118 6 122 0;
#X connect 118 7 115 0;
#X connect 118 8 123 0;
#X connect 118 9 116 0;
#X connect 118 10 124 0;
#X connect 118 11 117 0;
#X connect 119 0 103 0;
#X connect 119 0 173 0;
#X connect 120 0 103 0;
#X connect 120 0 179 0;
#X connect 121 0 103 0;
#X connect 121 0 181 0;
#X connect 122 0 103 0;
#X connect 122 0 183 0;
#X connect 123 0 103 0;
#X connect 123 0 185 0;
#X connect 124 0 103 0;
#X connect 124 0 187 0;
#X connect 126 0 192 0;
#X connect 126 0 190 0;
#X connect 127 0 126 1;
#X connect 127 0 190 1;
#X connect 128 0 127 0;
#X connect 129 0 131 0;
#X connect 129 0 134 0;
#X connect 129 0 154 0;
#X connect 130 0 129 1;
#X connect 131 0 129 1;
#X connect 132 0 133 0;
#X connect 133 0 136 0;
#X connect 133 1 137 0;
#X connect 133 2 138 0;
#X connect 133 3 139 0;
#X connect 134 0 132 0;
#X connect 135 0 125 0;
#X connect 135 0 129 0;
#X connect 136 0 126 0;
#X connect 136 0 177 0;
#X connect 137 0 126 0;
#X connect 137 0 176 0;
#X connect 138 0 126 0;
#X connect 138 0 175 0;
#X connect 139 0 126 0;
#X connect 139 0 178 0;
#X connect 141 0 166 0;
#X connect 141 0 191 0;
#X connect 142 0 141 1;
#X connect 142 0 191 1;
#X connect 143 0 142 0;
#X connect 144 0 145 0;
#X connect 144 0 148 0;
#X connect 144 0 157 0;
#X connect 145 0 144 1;
#X connect 146 0 147 0;
#X connect 147 0 161 0;
#X connect 147 0 168 0;
#X connect 147 1 162 0;
#X connect 147 1 169 0;
#X connect 147 2 163 0;
#X connect 147 2 170 0;
#X connect 147 3 164 0;
#X connect 147 3 171 0;
#X connect 148 0 146 0;
#X connect 149 0 150 0;
#X connect 150 0 151 0;
#X connect 151 0 140 0;
#X connect 151 0 144 0;
#X connect 152 0 150 0;
#X connect 153 0 160 0;
#X connect 158 0 153 0;
#X connect 158 0 159 0;
#X connect 159 0 149 0;
#X connect 160 0 152 0;
#X connect 161 0 141 0;
#X connect 162 0 141 0;
#X connect 163 0 141 0;
#X connect 164 0 141 0;
#X connect 166 0 165 0;
#X connect 166 1 165 1;
#X connect 172 0 144 1;
#X connect 189 0 198 0;
#X connect 190 0 199 0;
#X connect 191 0 200 0;
#X connect 192 0 91 0;
#X connect 192 1 91 1;
#X connect 193 0 33 0;
#X connect 193 1 33 1;
#X connect 194 0 104 0;
#X connect 194 0 127 0;
#X connect 194 0 142 0;
#X connect 195 0 105 0;
#X connect 196 0 128 0;
#X connect 197 0 143 0;
#X connect 198 0 54 0;
#X connect 199 0 54 0;
#X connect 200 0 54 0;
#X connect 201 0 21 0;
#X connect 201 0 22 0;
#X connect 201 0 23 0;
#X connect 201 0 24 0;
#X connect 201 0 28 0;
#X connect 201 0 32 0;
#X connect 201 0 36 0;
#X connect 201 0 39 0;
