#N canvas 184 -15 1600 817 12;
#X obj 790 163 bng 19 250 50 0 empty empty empty 0 -10 0 12 #fcfcfc #000000 #000000;
#X obj 81 283 metro 200;
#X msg 412 163 0;
#X obj 233 285 metro 800;
#X obj 542 289 metro 1600;
#X msg 544 330 36;
#X msg 391 332 36;
#X msg 233 325 38;
#X obj 438 330 bng 19 250 50 0 empty empty empty 0 -10 0 12 #fcfcfc #000000 #000000;
#X obj 604 330 bng 19 250 50 0 empty empty empty 0 -10 0 12 #fcfcfc #000000 #000000;
#X msg 82 327 42;
#X obj 286 325 bng 19 250 50 0 empty empty empty 0 -10 0 12 #fcfcfc #000000 #000000;
#X obj 126 328 bng 19 250 50 0 empty empty empty 0 -10 0 12 #fcfcfc #000000 #000000;
#X obj 389 289 metro 800;
#X obj 388 257 delay 400;
#X obj 540 256 delay 600;
#X obj 595 165 loadbang;
#X obj 69 374 spigot;
#X obj 225 375 spigot;
#X obj 374 374 spigot;
#X obj 533 369 spigot;
#X obj 123 372 tgl 19 0 empty empty empty 0 -10 0 12 #fcfcfc #000000 #000000 0 1;
#X obj 280 374 tgl 19 0 empty empty empty 0 -10 0 12 #fcfcfc #000000 #000000 0 1;
#X obj 428 372 tgl 19 0 empty empty empty 0 -10 0 12 #fcfcfc #000000 #000000 0 1;
#X obj 589 368 tgl 19 0 empty empty empty 0 -10 0 12 #fcfcfc #000000 #000000 0 1;
#X obj 762 273 metro 200;
#X obj 821 318 bng 19 250 50 0 empty empty empty 0 -10 0 12 #fcfcfc #000000 #000000;
#X obj 744 365 spigot;
#X obj 802 365 tgl 19 0 empty empty empty 0 -10 0 12 #fcfcfc #000000 #000000 0 1;
#X obj 954 270 metro 200;
#X obj 1018 314 bng 19 250 50 0 empty empty empty 0 -10 0 12 #fcfcfc #000000 #000000;
#X obj 943 358 spigot;
#X obj 1004 358 tgl 19 0 empty empty empty 0 -10 0 12 #fcfcfc #000000 #000000 0 1;
#X obj 1015 474 noteout 1;
#X obj 1175 314 bng 19 250 50 0 empty empty empty 0 -10 0 12 #fcfcfc #000000 #000000;
#X obj 1111 359 spigot;
#X obj 1167 356 tgl 19 0 empty empty empty 0 -10 0 12 #fcfcfc #000000 #000000 0 1;
#X obj 1328 316 bng 19 250 50 0 empty empty empty 0 -10 0 12 #fcfcfc #000000 #000000;
#X obj 1267 362 spigot;
#X obj 1329 359 tgl 19 0 empty empty empty 0 -10 0 12 #fcfcfc #000000 #000000 0 1;
#X msg 776 318 48;
#X msg 971 315 71;
#X obj 1124 270 metro 400;
#X obj 1274 275 metro 400;
#X obj 1274 241 delay 200;
#X msg 737 318 46;
#X obj 1197 417 makenote 120 100;
#X obj 299 436 makenote 80 50;
#X obj 946 419 makenote 85 190;
#X obj 747 421 makenote 110 190;
#X msg 928 317 68;
#X msg 1128 315 80;
#X msg 1280 315 84;
#X msg 603 763 connect localhost 11111;
#X msg 603 798 disconnect;
#X obj 603 834 netsend -u -b;
#X floatatom 552 835 5 0 0 0 - - - 0;
#X obj 602 729 oscformat /metro;
#X listbox 602 692 25 0 0 0 - - - 0;
#X obj 15 516 expr if($f2 == 1 \, $f1 \, 0);
#X obj 145 551 expr if($f2 == 1 \, $f1 \, 0);
#X obj 285 516 expr if($f2 == 1 \, $f1 \, 0);
#X obj 317 481 noteout 10;
#X obj 451 546 expr if($f2 == 1 \, $f1 \, 0);
#X obj 710 504 expr if($f1 == 1 \, 47 \, 0);
#X obj 931 535 expr if($f1 == 1 \, 69 \, 0);
#X obj 1077 502 expr if($f2 == 1 \, $f1 \, 0);
#X obj 602 655 pack f f f f f f f f, f 33;
#X obj 1225 533 expr if($f2 == 1 \, $f1 \, 0);
#X msg 607 -92 listen 11112;
#X msg 607 -63 listen 0;
#X obj 607 -23 netreceive -u -b;
#X obj 607 17 oscparse;
#X obj 607 61 list trim;
#X obj 102 126 route q;
#X listbox 687 60 9 0 0 0 - - - 0;
#X obj 148 372 bng 19 250 50 0 empty empty empty 0 -10 0 12 #fcfcfc #000000 #000000;
#X obj 305 374 bng 19 250 50 0 empty empty empty 0 -10 0 12 #fcfcfc #000000 #000000;
#X obj 230 124 route w;
#X obj 372 123 route e;
#X obj 532 126 route r;
#X obj 745 121 route t;
#X obj 935 121 route y;
#X obj 1103 117 route u;
#X obj 1278 116 route i;
#X obj 455 373 bng 19 250 50 0 empty empty empty 0 -10 0 12 #fcfcfc #000000 #000000;
#X obj 1202 357 bng 19 250 50 0 empty empty empty 0 -10 0 12 #fcfcfc #000000 #000000;
#X obj 1033 358 bng 19 250 50 0 empty empty empty 0 -10 0 12 #fcfcfc #000000 #000000;
#X obj 838 364 bng 19 250 50 0 empty empty empty 0 -10 0 12 #fcfcfc #000000 #000000;
#X obj 621 368 bng 19 250 50 0 empty empty empty 0 -10 0 12 #fcfcfc #000000 #000000;
#X obj 1362 358 bng 19 250 50 0 empty empty empty 0 -10 0 12 #fcfcfc #000000 #000000;
#X obj 518 17 unpack s s;
#X obj 518 59 print;
#X connect 0 0 1 0;
#X connect 0 0 3 0;
#X connect 0 0 14 0;
#X connect 0 0 15 0;
#X connect 0 0 25 0;
#X connect 0 0 29 0;
#X connect 0 0 42 0;
#X connect 0 0 44 0;
#X connect 1 0 10 0;
#X connect 1 0 12 0;
#X connect 2 0 1 0;
#X connect 2 0 3 0;
#X connect 2 0 4 0;
#X connect 2 0 13 0;
#X connect 2 0 25 0;
#X connect 2 0 29 0;
#X connect 2 0 42 0;
#X connect 2 0 43 0;
#X connect 3 0 7 0;
#X connect 3 0 11 0;
#X connect 4 0 5 0;
#X connect 4 0 9 0;
#X connect 5 0 20 0;
#X connect 5 0 63 0;
#X connect 6 0 19 0;
#X connect 6 0 61 0;
#X connect 7 0 18 0;
#X connect 7 0 60 0;
#X connect 10 0 17 0;
#X connect 10 0 59 0;
#X connect 13 0 6 0;
#X connect 13 0 8 0;
#X connect 14 0 13 0;
#X connect 15 0 4 0;
#X connect 16 0 0 0;
#X connect 17 0 47 0;
#X connect 18 0 47 0;
#X connect 19 0 47 0;
#X connect 20 0 47 0;
#X connect 21 0 17 1;
#X connect 21 0 59 1;
#X connect 22 0 18 1;
#X connect 22 0 60 1;
#X connect 23 0 19 1;
#X connect 23 0 61 1;
#X connect 24 0 20 1;
#X connect 24 0 63 1;
#X connect 25 0 40 0;
#X connect 25 0 26 0;
#X connect 25 0 45 0;
#X connect 27 0 49 0;
#X connect 28 0 27 1;
#X connect 28 0 64 0;
#X connect 29 0 41 0;
#X connect 29 0 30 0;
#X connect 29 0 50 0;
#X connect 31 0 48 0;
#X connect 32 0 31 1;
#X connect 32 0 65 0;
#X connect 35 0 46 0;
#X connect 36 0 35 1;
#X connect 36 0 66 1;
#X connect 38 0 46 0;
#X connect 39 0 38 1;
#X connect 39 0 68 1;
#X connect 40 0 27 0;
#X connect 41 0 31 0;
#X connect 42 0 51 0;
#X connect 42 0 34 0;
#X connect 43 0 52 0;
#X connect 43 0 37 0;
#X connect 44 0 43 0;
#X connect 45 0 27 0;
#X connect 46 0 33 0;
#X connect 46 1 33 1;
#X connect 47 0 62 0;
#X connect 47 1 62 1;
#X connect 48 0 33 0;
#X connect 48 1 33 1;
#X connect 49 0 33 0;
#X connect 49 1 33 1;
#X connect 50 0 31 0;
#X connect 51 0 35 0;
#X connect 51 0 66 0;
#X connect 52 0 38 0;
#X connect 52 0 68 0;
#X connect 53 0 55 0;
#X connect 54 0 55 0;
#X connect 55 0 56 0;
#X connect 57 0 55 0;
#X connect 59 0 67 0;
#X connect 60 0 67 1;
#X connect 61 0 67 2;
#X connect 63 0 67 3;
#X connect 64 0 67 4;
#X connect 65 0 67 5;
#X connect 66 0 67 6;
#X connect 67 0 57 0;
#X connect 67 0 58 0;
#X connect 68 0 67 7;
#X connect 69 0 71 0;
#X connect 70 0 71 0;
#X connect 71 0 72 0;
#X connect 72 0 73 0;
#X connect 72 0 75 0;
#X connect 72 0 91 0;
#X connect 73 0 74 0;
#X connect 73 0 78 0;
#X connect 73 0 79 0;
#X connect 73 0 80 0;
#X connect 73 0 81 0;
#X connect 73 0 82 0;
#X connect 73 0 83 0;
#X connect 73 0 84 0;
#X connect 74 0 76 0;
#X connect 76 0 21 0;
#X connect 77 0 22 0;
#X connect 78 0 77 0;
#X connect 79 0 85 0;
#X connect 80 0 89 0;
#X connect 81 0 88 0;
#X connect 82 0 87 0;
#X connect 83 0 86 0;
#X connect 84 0 90 0;
#X connect 85 0 23 0;
#X connect 86 0 36 0;
#X connect 87 0 32 0;
#X connect 88 0 28 0;
#X connect 89 0 24 0;
#X connect 90 0 39 0;
#X connect 91 0 92 0;
